<svg height="47" viewBox="0 0 47 47" width="50" xmlns="http://www.w3.org/2000/svg"
     xmlns:xlink="http://www.w3.org/1999/xlink">
  <mask id="itsa" fill="#fff">
    <path d="m0 .123h9.885v9.413h-9.885z" fill="#fff" fill-rule="evenodd"></path>
  </mask>
  <mask id="itsb" fill="#fff">
    <path d="m0 47h141v-47h-141z" fill="#fff" fill-rule="evenodd"></path>
  </mask>
  <g fill="none" fill-rule="evenodd">
    <path d="m41 47c-1.107 0-2-.9-2-2 0-1.108.893-2 2-2 1.106 0 2 .892 2 2 0 1.1-.894 2-2 2" fill="#005aa4"></path>
    <path d="m41 33c-1.107 0-2-.895-2-2.004 0-1.099.893-1.996 2-1.996a2 2 0 1 1 0 4" fill="#ef7809"></path>
    <path d="m41 18c-1.107 0-2-.893-2-2a2 2 0 1 1 2 2" fill="#005aa4"></path>
    <path
      d="m41 4a2 2 0 1 1 0-4 2 2 0 0 1 0 4m-12.002 37a3 3 0 1 1 3.002-3.001 3.007 3.007 0 0 1 -3.002 3.001m0-14a3 3 0 0 1 0-6 3.006 3.006 0 0 1 3.002 2.999 3.007 3.007 0 0 1 -3.002 3.001"
      fill="#ef7809"></path>
    <path
      d="m28.998 12a2.998 2.998 0 0 1 -2.998-2.999 3 3 0 1 1 2.998 2.999m-11.998 23a4 4 0 1 1 0-8 4 4 0 0 1 0 8m0-15c-2.211 0-4-1.79-4-4s1.789-4 4-4c2.21 0 4 1.79 4 4s-1.79 4-4 4"
      fill="#005aa4"></path>
    <path
      d="m4.942 9.536c-2.73 0-4.942-2.105-4.942-4.703 0-2.603 2.213-4.71 4.942-4.71 2.73 0 4.943 2.107 4.943 4.71 0 2.598-2.213 4.703-4.943 4.703"
      fill="#ef7809" mask="url(#itsa)" transform="translate(0 19)"></path>
  </g>
</svg>
