<svg height="47" viewBox="0 0 141 47" width="141" xmlns="http://www.w3.org/2000/svg" xmlns:xlink="http://www.w3.org/1999/xlink"><mask id="itsa" fill="#fff"><path d="m0 .123h9.885v9.413h-9.885z" fill="#fff" fill-rule="evenodd"></path></mask><mask id="itsb" fill="#fff"><path d="m0 47h141v-47h-141z" fill="#fff" fill-rule="evenodd"></path></mask><g fill="none" fill-rule="evenodd"><path d="m41 47c-1.107 0-2-.9-2-2 0-1.108.893-2 2-2 1.106 0 2 .892 2 2 0 1.1-.894 2-2 2" fill="#005aa4"></path><path d="m41 33c-1.107 0-2-.895-2-2.004 0-1.099.893-1.996 2-1.996a2 2 0 1 1 0 4" fill="#ef7809"></path><path d="m41 18c-1.107 0-2-.893-2-2a2 2 0 1 1 2 2" fill="#005aa4"></path><path d="m41 4a2 2 0 1 1 0-4 2 2 0 0 1 0 4m-12.002 37a3 3 0 1 1 3.002-3.001 3.007 3.007 0 0 1 -3.002 3.001m0-14a3 3 0 0 1 0-6 3.006 3.006 0 0 1 3.002 2.999 3.007 3.007 0 0 1 -3.002 3.001" fill="#ef7809"></path><path d="m28.998 12a2.998 2.998 0 0 1 -2.998-2.999 3 3 0 1 1 2.998 2.999m-11.998 23a4 4 0 1 1 0-8 4 4 0 0 1 0 8m0-15c-2.211 0-4-1.79-4-4s1.789-4 4-4c2.21 0 4 1.79 4 4s-1.79 4-4 4" fill="#005aa4"></path><path d="m4.942 9.536c-2.73 0-4.942-2.105-4.942-4.703 0-2.603 2.213-4.71 4.942-4.71 2.73 0 4.943 2.107 4.943 4.71 0 2.598-2.213 4.703-4.943 4.703" fill="#ef7809" mask="url(#itsa)" transform="translate(0 19)"></path><path d="m60 43h12v-39h-12zm17-39v10.36h9.234v28.64h12.543v-28.64h9.223v-10.36zm54.124-.69a19.833 19.833 0 0 0 -3.357-.31c-4.093 0-7.875 1.048-10.659 2.956-3.345 2.29-5.04 5.612-5.04 9.871 0 6.74 4.871 9.284 9.64 10.88 5.536 1.838 7.138 2.448 7.138 4.235 0 1.452-1.227 2.291-3.366 2.291-3.242 0-6.445-1.79-8.262-3.574l-7.218 7.909c3.962 3.354 9.855 5.432 15.533 5.432 7.43 0 15.431-4.186 15.431-13.373 0-7.684-7.338-10.069-12.695-11.81-2.756-.906-4.14-1.358-4.14-2.868 0-1.016.633-2.233 3.638-2.233 1.856 0 4.527.98 6.448 2.985l6.785-7.365c-1.234-1.136-4.779-4.004-9.876-5.026" fill="#005aa4" mask="url(#itsb)"></path></g></svg>
